<svg width="854" height="64" viewBox="0 0 854 64" fill="none" xmlns="http://www.w3.org/2000/svg">
<path d="M18.15 46.085C20.04 46.085 21.65 45.8633 22.98 45.42C24.3333 44.9767 25.43 44.37 26.27 43.6C27.1333 42.83 27.7633 41.92 28.16 40.87C28.5567 39.7967 28.755 38.63 28.755 37.37C28.755 34.8733 27.8917 32.9133 26.165 31.49C24.4383 30.0433 21.7667 29.32 18.15 29.32H7.65V46.085H18.15ZM7.65 7.585V24.035H16.225C19.8883 24.035 22.6067 23.3 24.38 21.83C26.1767 20.3367 27.075 18.33 27.075 15.81C27.075 12.94 26.2233 10.8517 24.52 9.545C22.8167 8.23833 20.1683 7.585 16.575 7.585H7.65ZM16.575 1.74C19.725 1.74 22.42 2.04333 24.66 2.65C26.9233 3.25666 28.7783 4.13166 30.225 5.275C31.6717 6.41833 32.7333 7.80667 33.41 9.44C34.11 11.05 34.46 12.8817 34.46 14.935C34.46 16.1483 34.2733 17.315 33.9 18.435C33.5267 19.555 32.955 20.605 32.185 21.585C31.415 22.5417 30.4467 23.405 29.28 24.175C28.1133 24.945 26.7367 25.5867 25.15 26.1C32.4533 27.5467 36.105 31.3617 36.105 37.545C36.105 39.6917 35.7083 41.6517 34.915 43.425C34.1217 45.175 32.9667 46.6917 31.45 47.975C29.9333 49.2583 28.0667 50.25 25.85 50.95C23.6333 51.65 21.1133 52 18.29 52H0.195V1.74H16.575ZM49.942 23.265C51.0854 20.9317 52.462 19.1 54.072 17.77C55.682 16.44 57.6187 15.775 59.882 15.775C60.652 15.775 61.3754 15.8683 62.052 16.055C62.752 16.2183 63.3587 16.475 63.872 16.825L63.417 21.97C63.2537 22.6 62.8687 22.915 62.262 22.915C61.9354 22.915 61.4454 22.8567 60.792 22.74C60.1387 22.6 59.4387 22.53 58.692 22.53C57.5954 22.53 56.627 22.6933 55.787 23.02C54.947 23.3233 54.1887 23.79 53.512 24.42C52.8587 25.0267 52.2754 25.785 51.762 26.695C51.2487 27.5817 50.7704 28.5967 50.327 29.74V52H43.502V16.44H47.422C48.1687 16.44 48.6704 16.58 48.927 16.86C49.207 17.1167 49.4054 17.5833 49.522 18.26L49.942 23.265ZM87.6999 36.215C84.9233 36.3083 82.5666 36.53 80.6299 36.88C78.6933 37.2067 77.1183 37.65 75.9049 38.21C74.6916 38.77 73.8166 39.435 73.2799 40.205C72.7433 40.9517 72.4749 41.7917 72.4749 42.725C72.4749 43.6117 72.6149 44.3817 72.8949 45.035C73.1983 45.665 73.5949 46.19 74.0849 46.61C74.5983 47.0067 75.1933 47.2983 75.8699 47.485C76.5466 47.6717 77.2816 47.765 78.0749 47.765C79.1249 47.765 80.0816 47.66 80.9449 47.45C81.8316 47.24 82.6599 46.9483 83.4299 46.575C84.1999 46.1783 84.9349 45.7 85.6349 45.14C86.3349 44.58 87.0233 43.9383 87.6999 43.215V36.215ZM67.6799 21.41C69.6633 19.52 71.8099 18.1083 74.1199 17.175C76.4533 16.2417 79.0083 15.775 81.7849 15.775C83.8149 15.775 85.6116 16.1133 87.1749 16.79C88.7383 17.4433 90.0566 18.365 91.1299 19.555C92.2033 20.745 93.0083 22.1683 93.5449 23.825C94.1049 25.4817 94.3849 27.3133 94.3849 29.32V52H91.3399C90.6633 52 90.1499 51.895 89.7999 51.685C89.4499 51.4517 89.1699 51.0317 88.9599 50.425L88.2249 47.31C87.3149 48.15 86.4166 48.8967 85.5299 49.55C84.6433 50.18 83.7099 50.7283 82.7299 51.195C81.7733 51.6383 80.7466 51.9767 79.6499 52.21C78.5533 52.4433 77.3399 52.56 76.0099 52.56C74.6099 52.56 73.2916 52.3733 72.0549 52C70.8416 51.6033 69.7799 51.0083 68.8699 50.215C67.9599 49.4217 67.2366 48.43 66.6999 47.24C66.1866 46.05 65.9299 44.6617 65.9299 43.075C65.9299 41.675 66.3033 40.3333 67.0499 39.05C67.8199 37.7433 69.0566 36.5767 70.7599 35.55C72.4866 34.5233 74.7266 33.6833 77.4799 33.03C80.2566 32.3767 83.6633 32.0033 87.6999 31.91V29.32C87.6999 26.6367 87.1283 24.63 85.9849 23.3C84.8416 21.97 83.1616 21.305 80.9449 21.305C79.4516 21.305 78.1916 21.4917 77.1649 21.865C76.1616 22.2383 75.2866 22.6583 74.5399 23.125C73.8166 23.5683 73.1749 23.9767 72.6149 24.35C72.0783 24.7233 71.5183 24.91 70.9349 24.91C70.4683 24.91 70.0599 24.7817 69.7099 24.525C69.3833 24.2683 69.1149 23.965 68.9049 23.615L67.6799 21.41ZM128.302 19.31C128.302 19.8 128.208 20.2783 128.022 20.745C127.858 21.2117 127.637 21.6083 127.357 21.935L108.702 46.645H127.672V52H100.687V49.13C100.687 48.8033 100.768 48.4183 100.932 47.975C101.095 47.5083 101.328 47.0767 101.632 46.68L120.392 21.795H101.772V16.44H128.302V19.31ZM142.449 16.44V52H135.624V16.44H142.449ZM143.744 5.45C143.744 6.08 143.615 6.68666 143.359 7.27C143.102 7.83 142.752 8.33166 142.309 8.775C141.889 9.195 141.387 9.53333 140.804 9.79C140.22 10.0233 139.614 10.14 138.984 10.14C138.354 10.14 137.759 10.0233 137.199 9.79C136.639 9.53333 136.137 9.195 135.694 8.775C135.274 8.33166 134.935 7.83 134.679 7.27C134.445 6.68666 134.329 6.08 134.329 5.45C134.329 4.79667 134.445 4.19 134.679 3.63C134.935 3.04666 135.274 2.545 135.694 2.125C136.137 1.68166 136.639 1.34333 137.199 1.11C137.759 0.853331 138.354 0.724999 138.984 0.724999C139.614 0.724999 140.22 0.853331 140.804 1.11C141.387 1.34333 141.889 1.68166 142.309 2.125C142.752 2.545 143.102 3.04666 143.359 3.63C143.615 4.19 143.744 4.79667 143.744 5.45ZM159.33 0.339998V52H152.47V0.339998H159.33ZM223.288 41.22C223.708 41.22 224.07 41.3833 224.373 41.71L227.313 44.93C225.26 47.3567 222.752 49.235 219.788 50.565C216.848 51.895 213.302 52.56 209.148 52.56C205.508 52.56 202.207 51.93 199.243 50.67C196.303 49.41 193.783 47.6483 191.683 45.385C189.607 43.1217 187.997 40.415 186.853 37.265C185.71 34.115 185.138 30.65 185.138 26.87C185.138 23.09 185.733 19.625 186.923 16.475C188.137 13.325 189.828 10.6183 191.998 8.355C194.168 6.09166 196.758 4.33 199.768 3.07C202.802 1.81 206.15 1.18 209.813 1.18C213.383 1.18 216.557 1.76333 219.333 2.93C222.11 4.09666 224.525 5.64833 226.578 7.585L224.128 11.05C223.965 11.3067 223.755 11.5167 223.498 11.68C223.265 11.8433 222.95 11.925 222.553 11.925C222.11 11.925 221.585 11.7033 220.978 11.26C220.395 10.8167 219.613 10.3267 218.633 9.79C217.677 9.23 216.487 8.72833 215.063 8.285C213.64 7.84167 211.867 7.62 209.743 7.62C207.247 7.62 204.96 8.06333 202.883 8.95C200.807 9.81333 199.01 11.0733 197.493 12.73C196 14.3633 194.833 16.3817 193.993 18.785C193.177 21.165 192.768 23.86 192.768 26.87C192.768 29.9267 193.2 32.645 194.063 35.025C194.927 37.405 196.117 39.4233 197.633 41.08C199.15 42.7367 200.935 43.9967 202.988 44.86C205.042 45.7233 207.258 46.155 209.638 46.155C211.085 46.155 212.38 46.0733 213.523 45.91C214.69 45.7233 215.752 45.455 216.708 45.105C217.688 44.755 218.61 44.3117 219.473 43.775C220.337 43.215 221.188 42.55 222.028 41.78C222.215 41.6167 222.413 41.4883 222.623 41.395C222.833 41.2783 223.055 41.22 223.288 41.22ZM247.876 15.88C250.489 15.88 252.846 16.3117 254.946 17.175C257.069 18.015 258.866 19.24 260.336 20.85C261.829 22.4367 262.972 24.3617 263.766 26.625C264.559 28.865 264.956 31.385 264.956 34.185C264.956 36.985 264.559 39.5167 263.766 41.78C262.972 44.0433 261.829 45.9683 260.336 47.555C258.866 49.1417 257.069 50.3667 254.946 51.23C252.846 52.07 250.489 52.49 247.876 52.49C245.239 52.49 242.859 52.07 240.736 51.23C238.636 50.3667 236.839 49.1417 235.346 47.555C233.852 45.9683 232.697 44.0433 231.881 41.78C231.087 39.5167 230.691 36.985 230.691 34.185C230.691 31.385 231.087 28.865 231.881 26.625C232.697 24.3617 233.852 22.4367 235.346 20.85C236.839 19.24 238.636 18.015 240.736 17.175C242.859 16.3117 245.239 15.88 247.876 15.88ZM247.876 47.17C251.236 47.17 253.744 46.0383 255.401 43.775C257.057 41.5117 257.886 38.3267 257.886 34.22C257.886 30.1133 257.057 26.9283 255.401 24.665C253.744 22.3783 251.236 21.235 247.876 21.235C244.469 21.235 241.926 22.3783 240.246 24.665C238.589 26.9283 237.761 30.1133 237.761 34.22C237.761 38.3267 238.589 41.5117 240.246 43.775C241.926 46.0383 244.469 47.17 247.876 47.17ZM279.574 0.339998V52H272.714V0.339998H279.574ZM296.322 0.339998V52H289.462V0.339998H296.322ZM325.18 36.215C322.404 36.3083 320.047 36.53 318.11 36.88C316.174 37.2067 314.599 37.65 313.385 38.21C312.172 38.77 311.297 39.435 310.76 40.205C310.224 40.9517 309.955 41.7917 309.955 42.725C309.955 43.6117 310.095 44.3817 310.375 45.035C310.679 45.665 311.075 46.19 311.565 46.61C312.079 47.0067 312.674 47.2983 313.35 47.485C314.027 47.6717 314.762 47.765 315.555 47.765C316.605 47.765 317.562 47.66 318.425 47.45C319.312 47.24 320.14 46.9483 320.91 46.575C321.68 46.1783 322.415 45.7 323.115 45.14C323.815 44.58 324.504 43.9383 325.18 43.215V36.215ZM305.16 21.41C307.144 19.52 309.29 18.1083 311.6 17.175C313.934 16.2417 316.489 15.775 319.265 15.775C321.295 15.775 323.092 16.1133 324.655 16.79C326.219 17.4433 327.537 18.365 328.61 19.555C329.684 20.745 330.489 22.1683 331.025 23.825C331.585 25.4817 331.865 27.3133 331.865 29.32V52H328.82C328.144 52 327.63 51.895 327.28 51.685C326.93 51.4517 326.65 51.0317 326.44 50.425L325.705 47.31C324.795 48.15 323.897 48.8967 323.01 49.55C322.124 50.18 321.19 50.7283 320.21 51.195C319.254 51.6383 318.227 51.9767 317.13 52.21C316.034 52.4433 314.82 52.56 313.49 52.56C312.09 52.56 310.772 52.3733 309.535 52C308.322 51.6033 307.26 51.0083 306.35 50.215C305.44 49.4217 304.717 48.43 304.18 47.24C303.667 46.05 303.41 44.6617 303.41 43.075C303.41 41.675 303.784 40.3333 304.53 39.05C305.3 37.7433 306.537 36.5767 308.24 35.55C309.967 34.5233 312.207 33.6833 314.96 33.03C317.737 32.3767 321.144 32.0033 325.18 31.91V29.32C325.18 26.6367 324.609 24.63 323.465 23.3C322.322 21.97 320.642 21.305 318.425 21.305C316.932 21.305 315.672 21.4917 314.645 21.865C313.642 22.2383 312.767 22.6583 312.02 23.125C311.297 23.5683 310.655 23.9767 310.095 24.35C309.559 24.7233 308.999 24.91 308.415 24.91C307.949 24.91 307.54 24.7817 307.19 24.525C306.864 24.2683 306.595 23.965 306.385 23.615L305.16 21.41ZM347.827 43.25C348.947 44.72 350.16 45.7467 351.467 46.33C352.774 46.9133 354.197 47.205 355.737 47.205C358.91 47.205 361.349 46.0733 363.052 43.81C364.779 41.5467 365.642 38.1283 365.642 33.555C365.642 29.3317 364.884 26.24 363.367 24.28C361.85 22.2967 359.704 21.305 356.927 21.305C354.967 21.305 353.264 21.7483 351.817 22.635C350.394 23.5217 349.064 24.7817 347.827 26.415V43.25ZM347.827 21.34C349.297 19.7067 350.965 18.3883 352.832 17.385C354.699 16.3817 356.822 15.88 359.202 15.88C361.279 15.88 363.145 16.2883 364.802 17.105C366.482 17.8983 367.905 19.0533 369.072 20.57C370.239 22.0633 371.137 23.8833 371.767 26.03C372.397 28.1767 372.712 30.6033 372.712 33.31C372.712 36.18 372.35 38.7933 371.627 41.15C370.927 43.5067 369.912 45.525 368.582 47.205C367.275 48.885 365.677 50.1917 363.787 51.125C361.897 52.035 359.774 52.49 357.417 52.49C356.274 52.49 355.224 52.3733 354.267 52.14C353.31 51.93 352.424 51.615 351.607 51.195C350.814 50.775 350.079 50.2617 349.402 49.655C348.725 49.0483 348.084 48.36 347.477 47.59L347.162 50.565C346.975 51.5217 346.392 52 345.412 52H341.002V0.339998H347.827V21.34ZM395.464 15.88C398.077 15.88 400.434 16.3117 402.534 17.175C404.657 18.015 406.454 19.24 407.924 20.85C409.417 22.4367 410.56 24.3617 411.354 26.625C412.147 28.865 412.544 31.385 412.544 34.185C412.544 36.985 412.147 39.5167 411.354 41.78C410.56 44.0433 409.417 45.9683 407.924 47.555C406.454 49.1417 404.657 50.3667 402.534 51.23C400.434 52.07 398.077 52.49 395.464 52.49C392.827 52.49 390.447 52.07 388.324 51.23C386.224 50.3667 384.427 49.1417 382.934 47.555C381.44 45.9683 380.285 44.0433 379.469 41.78C378.675 39.5167 378.279 36.985 378.279 34.185C378.279 31.385 378.675 28.865 379.469 26.625C380.285 24.3617 381.44 22.4367 382.934 20.85C384.427 19.24 386.224 18.015 388.324 17.175C390.447 16.3117 392.827 15.88 395.464 15.88ZM395.464 47.17C398.824 47.17 401.332 46.0383 402.989 43.775C404.645 41.5117 405.474 38.3267 405.474 34.22C405.474 30.1133 404.645 26.9283 402.989 24.665C401.332 22.3783 398.824 21.235 395.464 21.235C392.057 21.235 389.514 22.3783 387.834 24.665C386.177 26.9283 385.349 30.1133 385.349 34.22C385.349 38.3267 386.177 41.5117 387.834 43.775C389.514 46.0383 392.057 47.17 395.464 47.17ZM426.602 23.265C427.746 20.9317 429.122 19.1 430.732 17.77C432.342 16.44 434.279 15.775 436.542 15.775C437.312 15.775 438.036 15.8683 438.712 16.055C439.412 16.2183 440.019 16.475 440.532 16.825L440.077 21.97C439.914 22.6 439.529 22.915 438.922 22.915C438.596 22.915 438.106 22.8567 437.452 22.74C436.799 22.6 436.099 22.53 435.352 22.53C434.256 22.53 433.287 22.6933 432.447 23.02C431.607 23.3233 430.849 23.79 430.172 24.42C429.519 25.0267 428.936 25.785 428.422 26.695C427.909 27.5817 427.431 28.5967 426.987 29.74V52H420.162V16.44H424.082C424.829 16.44 425.331 16.58 425.587 16.86C425.867 17.1167 426.066 17.5833 426.182 18.26L426.602 23.265ZM464.36 36.215C461.583 36.3083 459.227 36.53 457.29 36.88C455.353 37.2067 453.778 37.65 452.565 38.21C451.352 38.77 450.477 39.435 449.94 40.205C449.403 40.9517 449.135 41.7917 449.135 42.725C449.135 43.6117 449.275 44.3817 449.555 45.035C449.858 45.665 450.255 46.19 450.745 46.61C451.258 47.0067 451.853 47.2983 452.53 47.485C453.207 47.6717 453.942 47.765 454.735 47.765C455.785 47.765 456.742 47.66 457.605 47.45C458.492 47.24 459.32 46.9483 460.09 46.575C460.86 46.1783 461.595 45.7 462.295 45.14C462.995 44.58 463.683 43.9383 464.36 43.215V36.215ZM444.34 21.41C446.323 19.52 448.47 18.1083 450.78 17.175C453.113 16.2417 455.668 15.775 458.445 15.775C460.475 15.775 462.272 16.1133 463.835 16.79C465.398 17.4433 466.717 18.365 467.79 19.555C468.863 20.745 469.668 22.1683 470.205 23.825C470.765 25.4817 471.045 27.3133 471.045 29.32V52H468C467.323 52 466.81 51.895 466.46 51.685C466.11 51.4517 465.83 51.0317 465.62 50.425L464.885 47.31C463.975 48.15 463.077 48.8967 462.19 49.55C461.303 50.18 460.37 50.7283 459.39 51.195C458.433 51.6383 457.407 51.9767 456.31 52.21C455.213 52.4433 454 52.56 452.67 52.56C451.27 52.56 449.952 52.3733 448.715 52C447.502 51.6033 446.44 51.0083 445.53 50.215C444.62 49.4217 443.897 48.43 443.36 47.24C442.847 46.05 442.59 44.6617 442.59 43.075C442.59 41.675 442.963 40.3333 443.71 39.05C444.48 37.7433 445.717 36.5767 447.42 35.55C449.147 34.5233 451.387 33.6833 454.14 33.03C456.917 32.3767 460.323 32.0033 464.36 31.91V29.32C464.36 26.6367 463.788 24.63 462.645 23.3C461.502 21.97 459.822 21.305 457.605 21.305C456.112 21.305 454.852 21.4917 453.825 21.865C452.822 22.2383 451.947 22.6583 451.2 23.125C450.477 23.5683 449.835 23.9767 449.275 24.35C448.738 24.7233 448.178 24.91 447.595 24.91C447.128 24.91 446.72 24.7817 446.37 24.525C446.043 24.2683 445.775 23.965 445.565 23.615L444.34 21.41ZM513.408 52H506.548V21.97H488.698V42.795C488.698 44.195 489.037 45.245 489.713 45.945C490.413 46.6217 491.3 46.96 492.373 46.96C493.003 46.96 493.54 46.8783 493.983 46.715C494.45 46.5517 494.847 46.3767 495.173 46.19C495.5 45.98 495.78 45.7933 496.013 45.63C496.247 45.4667 496.457 45.385 496.643 45.385C496.877 45.385 497.052 45.4433 497.168 45.56C497.308 45.6533 497.448 45.8167 497.588 46.05L499.618 49.34C498.498 50.3667 497.168 51.16 495.628 51.72C494.088 52.28 492.49 52.56 490.833 52.56C487.963 52.56 485.747 51.755 484.183 50.145C482.643 48.535 481.873 46.2367 481.873 43.25V21.97H477.743C477.347 21.97 477.008 21.8533 476.728 21.62C476.472 21.3633 476.343 20.99 476.343 20.5V17.735L482.153 16.93L483.658 6.325C483.752 5.92833 483.927 5.625 484.183 5.415C484.463 5.18166 484.813 5.065 485.233 5.065H488.698V17H513.408V52ZM514.948 5.24C514.948 5.87 514.82 6.47667 514.563 7.06C514.307 7.62 513.957 8.12166 513.513 8.565C513.093 8.985 512.592 9.32333 512.008 9.58C511.425 9.81333 510.818 9.93 510.188 9.93C509.558 9.93 508.963 9.81333 508.403 9.58C507.843 9.32333 507.342 8.985 506.898 8.565C506.478 8.12166 506.14 7.62 505.883 7.06C505.65 6.47667 505.533 5.87 505.533 5.24C505.533 4.58666 505.65 3.96833 505.883 3.385C506.14 2.80167 506.478 2.3 506.898 1.88C507.342 1.43666 507.843 1.09833 508.403 0.864997C508.963 0.608329 509.558 0.479996 510.188 0.479996C510.818 0.479996 511.425 0.608329 512.008 0.864997C512.592 1.09833 513.093 1.43666 513.513 1.88C513.957 2.3 514.307 2.80167 514.563 3.385C514.82 3.96833 514.948 4.58666 514.948 5.24ZM554.186 16.44L539.766 52H533.606L519.186 16.44H524.821C525.358 16.44 525.801 16.5683 526.151 16.825C526.501 17.0817 526.735 17.4083 526.851 17.805L535.356 39.645C535.66 40.555 535.916 41.465 536.126 42.375C536.36 43.2617 536.57 44.1483 536.756 45.035C536.943 44.1483 537.153 43.2617 537.386 42.375C537.62 41.4883 537.9 40.5783 538.226 39.645L546.836 17.805C546.976 17.4083 547.221 17.0817 547.571 16.825C547.921 16.5683 548.341 16.44 548.831 16.44H554.186ZM582.145 30.265C582.145 28.9117 581.947 27.6633 581.55 26.52C581.177 25.3767 580.617 24.385 579.87 23.545C579.123 22.705 578.213 22.0517 577.14 21.585C576.067 21.1183 574.83 20.885 573.43 20.885C570.56 20.885 568.297 21.7133 566.64 23.37C565.007 25.0267 563.968 27.325 563.525 30.265H582.145ZM587.78 46.925C586.94 47.905 585.972 48.7567 584.875 49.48C583.778 50.18 582.612 50.7517 581.375 51.195C580.138 51.6383 578.855 51.965 577.525 52.175C576.218 52.385 574.923 52.49 573.64 52.49C571.19 52.49 568.915 52.0817 566.815 51.265C564.738 50.425 562.93 49.2117 561.39 47.625C559.873 46.015 558.683 44.0317 557.82 41.675C556.98 39.295 556.56 36.565 556.56 33.485C556.56 31.0117 556.945 28.7133 557.715 26.59C558.485 24.4433 559.582 22.5767 561.005 20.99C562.452 19.4033 564.213 18.155 566.29 17.245C568.367 16.335 570.7 15.88 573.29 15.88C575.46 15.88 577.455 16.2417 579.275 16.965C581.118 17.665 582.705 18.6917 584.035 20.045C585.365 21.3983 586.403 23.0667 587.15 25.05C587.92 27.0333 588.305 29.2967 588.305 31.84C588.305 32.89 588.188 33.6017 587.955 33.975C587.722 34.325 587.29 34.5 586.66 34.5H563.35C563.42 36.6233 563.723 38.4783 564.26 40.065C564.797 41.6283 565.532 42.935 566.465 43.985C567.422 45.035 568.553 45.8167 569.86 46.33C571.167 46.8433 572.625 47.1 574.235 47.1C575.752 47.1 577.058 46.925 578.155 46.575C579.275 46.225 580.232 45.8517 581.025 45.455C581.842 45.035 582.518 44.65 583.055 44.3C583.615 43.95 584.105 43.775 584.525 43.775C585.085 43.775 585.517 43.985 585.82 44.405L587.78 46.925ZM643.516 45.735V52H614.746V1.74H622.201V45.735H643.516ZM656.511 16.44V52H649.686V16.44H656.511ZM657.806 5.45C657.806 6.08 657.678 6.68666 657.421 7.27C657.165 7.83 656.815 8.33166 656.371 8.775C655.951 9.195 655.45 9.53333 654.866 9.79C654.283 10.0233 653.676 10.14 653.046 10.14C652.416 10.14 651.821 10.0233 651.261 9.79C650.701 9.53333 650.2 9.195 649.756 8.775C649.336 8.33166 648.998 7.83 648.741 7.27C648.508 6.68666 648.391 6.08 648.391 5.45C648.391 4.79667 648.508 4.19 648.741 3.63C648.998 3.04666 649.336 2.545 649.756 2.125C650.2 1.68166 650.701 1.34333 651.261 1.11C651.821 0.853331 652.416 0.724999 653.046 0.724999C653.676 0.724999 654.283 0.853331 654.866 1.11C655.45 1.34333 655.951 1.68166 656.371 2.125C656.815 2.545 657.165 3.04666 657.421 3.63C657.678 4.19 657.806 4.79667 657.806 5.45ZM677.523 52.56C674.653 52.56 672.436 51.755 670.873 50.145C669.333 48.535 668.563 46.2367 668.563 43.25V21.97H664.433C664.036 21.97 663.698 21.8533 663.418 21.62C663.161 21.3633 663.033 20.99 663.033 20.5V17.735L668.808 16.93L670.348 6.325C670.441 5.92833 670.616 5.625 670.873 5.415C671.153 5.18166 671.503 5.065 671.923 5.065H675.388V17H685.468V21.97H675.388V42.795C675.388 44.195 675.726 45.245 676.403 45.945C677.103 46.6217 677.989 46.96 679.063 46.96C679.693 46.96 680.229 46.8783 680.673 46.715C681.139 46.5517 681.536 46.3767 681.863 46.19C682.189 45.98 682.469 45.7933 682.703 45.63C682.936 45.4667 683.146 45.385 683.333 45.385C683.566 45.385 683.741 45.4433 683.858 45.56C683.998 45.6533 684.138 45.8167 684.278 46.05L686.308 49.34C685.188 50.3667 683.858 51.16 682.318 51.72C680.778 52.28 679.179 52.56 677.523 52.56ZM715.104 30.265C715.104 28.9117 714.906 27.6633 714.509 26.52C714.136 25.3767 713.576 24.385 712.829 23.545C712.082 22.705 711.172 22.0517 710.099 21.585C709.026 21.1183 707.789 20.885 706.389 20.885C703.519 20.885 701.256 21.7133 699.599 23.37C697.966 25.0267 696.927 27.325 696.484 30.265H715.104ZM720.739 46.925C719.899 47.905 718.931 48.7567 717.834 49.48C716.737 50.18 715.571 50.7517 714.334 51.195C713.097 51.6383 711.814 51.965 710.484 52.175C709.177 52.385 707.882 52.49 706.599 52.49C704.149 52.49 701.874 52.0817 699.774 51.265C697.697 50.425 695.889 49.2117 694.349 47.625C692.832 46.015 691.642 44.0317 690.779 41.675C689.939 39.295 689.519 36.565 689.519 33.485C689.519 31.0117 689.904 28.7133 690.674 26.59C691.444 24.4433 692.541 22.5767 693.964 20.99C695.411 19.4033 697.172 18.155 699.249 17.245C701.326 16.335 703.659 15.88 706.249 15.88C708.419 15.88 710.414 16.2417 712.234 16.965C714.077 17.665 715.664 18.6917 716.994 20.045C718.324 21.3983 719.362 23.0667 720.109 25.05C720.879 27.0333 721.264 29.2967 721.264 31.84C721.264 32.89 721.147 33.6017 720.914 33.975C720.681 34.325 720.249 34.5 719.619 34.5H696.309C696.379 36.6233 696.682 38.4783 697.219 40.065C697.756 41.6283 698.491 42.935 699.424 43.985C700.381 45.035 701.512 45.8167 702.819 46.33C704.126 46.8433 705.584 47.1 707.194 47.1C708.711 47.1 710.017 46.925 711.114 46.575C712.234 46.225 713.191 45.8517 713.984 45.455C714.801 45.035 715.477 44.65 716.014 44.3C716.574 43.95 717.064 43.775 717.484 43.775C718.044 43.775 718.476 43.985 718.779 44.405L720.739 46.925ZM735.04 23.265C736.183 20.9317 737.56 19.1 739.17 17.77C740.78 16.44 742.716 15.775 744.98 15.775C745.75 15.775 746.473 15.8683 747.15 16.055C747.85 16.2183 748.456 16.475 748.97 16.825L748.515 21.97C748.351 22.6 747.966 22.915 747.36 22.915C747.033 22.915 746.543 22.8567 745.89 22.74C745.236 22.6 744.536 22.53 743.79 22.53C742.693 22.53 741.725 22.6933 740.885 23.02C740.045 23.3233 739.286 23.79 738.61 24.42C737.956 25.0267 737.373 25.785 736.86 26.695C736.346 27.5817 735.868 28.5967 735.425 29.74V52H728.6V16.44H732.52C733.266 16.44 733.768 16.58 734.025 16.86C734.305 17.1167 734.503 17.5833 734.62 18.26L735.04 23.265ZM772.798 36.215C770.021 36.3083 767.664 36.53 765.728 36.88C763.791 37.2067 762.216 37.65 761.003 38.21C759.789 38.77 758.914 39.435 758.378 40.205C757.841 40.9517 757.573 41.7917 757.573 42.725C757.573 43.6117 757.713 44.3817 757.993 45.035C758.296 45.665 758.693 46.19 759.183 46.61C759.696 47.0067 760.291 47.2983 760.968 47.485C761.644 47.6717 762.379 47.765 763.173 47.765C764.223 47.765 765.179 47.66 766.043 47.45C766.929 47.24 767.758 46.9483 768.528 46.575C769.298 46.1783 770.033 45.7 770.733 45.14C771.433 44.58 772.121 43.9383 772.798 43.215V36.215ZM752.778 21.41C754.761 19.52 756.908 18.1083 759.218 17.175C761.551 16.2417 764.106 15.775 766.883 15.775C768.913 15.775 770.709 16.1133 772.273 16.79C773.836 17.4433 775.154 18.365 776.228 19.555C777.301 20.745 778.106 22.1683 778.643 23.825C779.203 25.4817 779.483 27.3133 779.483 29.32V52H776.438C775.761 52 775.248 51.895 774.898 51.685C774.548 51.4517 774.268 51.0317 774.058 50.425L773.323 47.31C772.413 48.15 771.514 48.8967 770.628 49.55C769.741 50.18 768.808 50.7283 767.828 51.195C766.871 51.6383 765.844 51.9767 764.748 52.21C763.651 52.4433 762.438 52.56 761.108 52.56C759.708 52.56 758.389 52.3733 757.153 52C755.939 51.6033 754.878 51.0083 753.968 50.215C753.058 49.4217 752.334 48.43 751.798 47.24C751.284 46.05 751.028 44.6617 751.028 43.075C751.028 41.675 751.401 40.3333 752.148 39.05C752.918 37.7433 754.154 36.5767 755.858 35.55C757.584 34.5233 759.824 33.6833 762.578 33.03C765.354 32.3767 768.761 32.0033 772.798 31.91V29.32C772.798 26.6367 772.226 24.63 771.083 23.3C769.939 21.97 768.259 21.305 766.043 21.305C764.549 21.305 763.289 21.4917 762.263 21.865C761.259 22.2383 760.384 22.6583 759.638 23.125C758.914 23.5683 758.273 23.9767 757.713 24.35C757.176 24.7233 756.616 24.91 756.033 24.91C755.566 24.91 755.158 24.7817 754.808 24.525C754.481 24.2683 754.213 23.965 754.003 23.615L752.778 21.41ZM813.539 23.09C813.329 23.3467 813.119 23.5567 812.909 23.72C812.723 23.86 812.443 23.93 812.069 23.93C811.696 23.93 811.299 23.79 810.879 23.51C810.483 23.2067 809.969 22.8917 809.339 22.565C808.733 22.215 807.986 21.9 807.099 21.62C806.236 21.3167 805.163 21.165 803.879 21.165C802.199 21.165 800.718 21.4683 799.434 22.075C798.151 22.6817 797.078 23.545 796.214 24.665C795.374 25.785 794.733 27.15 794.289 28.76C793.846 30.37 793.624 32.1783 793.624 34.185C793.624 36.2617 793.858 38.1167 794.324 39.75C794.791 41.36 795.456 42.725 796.319 43.845C797.183 44.9417 798.233 45.7817 799.469 46.365C800.706 46.925 802.083 47.205 803.599 47.205C805.069 47.205 806.283 47.03 807.239 46.68C808.196 46.3067 808.989 45.91 809.619 45.49C810.249 45.07 810.774 44.685 811.194 44.335C811.614 43.9617 812.046 43.775 812.489 43.775C813.049 43.775 813.481 43.985 813.784 44.405L815.744 46.925C814.928 47.9283 814.006 48.78 812.979 49.48C811.976 50.18 810.903 50.7517 809.759 51.195C808.616 51.6383 807.414 51.965 806.154 52.175C804.918 52.385 803.658 52.49 802.374 52.49C800.158 52.49 798.081 52.0817 796.144 51.265C794.231 50.4483 792.563 49.2583 791.139 47.695C789.739 46.1317 788.631 44.2183 787.814 41.955C786.998 39.6683 786.589 37.0783 786.589 34.185C786.589 31.5483 786.951 29.11 787.674 26.87C788.421 24.63 789.506 22.705 790.929 21.095C792.376 19.4617 794.149 18.19 796.249 17.28C798.349 16.3467 800.753 15.88 803.459 15.88C806.003 15.88 808.243 16.2883 810.179 17.105C812.116 17.9217 813.843 19.0767 815.359 20.57L813.539 23.09ZM853.195 16.44L833.455 62.325C833.245 62.8383 832.965 63.235 832.615 63.515C832.265 63.795 831.752 63.935 831.075 63.935H826L832.51 49.76L817.915 16.44H823.865C824.449 16.44 824.904 16.58 825.23 16.86C825.557 17.14 825.79 17.455 825.93 17.805L834.96 39.155C835.147 39.6917 835.322 40.24 835.485 40.8C835.672 41.3367 835.824 41.8733 835.94 42.41C836.104 41.85 836.279 41.3017 836.465 40.765C836.652 40.205 836.85 39.6567 837.06 39.12L845.775 17.805C845.939 17.4083 846.195 17.0817 846.545 16.825C846.895 16.5683 847.292 16.44 847.735 16.44H853.195Z" fill="#4C5773"/>
</svg>
